<svg xmlns="http://www.w3.org/2000/svg" width="487.2" height="171.1141463414634" viewBox="0 0 410 144" class="css-1j8o68f">
  <defs id="SvgjsDefs4215"></defs>
  <g id="SvgjsG4216" featurekey="symbolGroupContainer" transform="matrix(1,0,0,1,0,0)" fill="#ffffff">
    <rect xmlns="http://www.w3.org/2000/svg" width="140" height="144" rx="10" ry="10">
    </rect>
  </g>
  <g id="SvgjsG4217" featurekey="monogramFeature-0" transform="matrix(2.4877658715313546,0,0,2.4877658715313546,12.536886255583248,-24.66314319211535)" fill="#A855F7">
    <path d="M42.114 29.863 c0.76776 1.7332 1.1562 3.6032 1.0711 5.4502 c-0.070548 1.8464 -0.61272 3.6425 -1.4733 5.2441 c-0.86436 1.6029 -2.0459 3.0209 -3.3698 4.2087 c-0.58283 0.5059 -1.1777 0.97494 -1.7968 1.3913 c-0.61458 0.40043 -1.2038 0.78054 -1.8336 1.1123 c-4.3365 2.3701 -9.2064 3.2707 -13.847 2.7539 l-1.5476 8.949 c-0.23514 1.2286 -5.3496 1.1986 -5.7119 -0.048985 l-4.2336 -27.3 c-2.5931 0.7659 -4.6346 1.1383 -4.7102 0.6057 l-0.081972 -0.32479 l-1.5794 -6.267 l4.048 -2.9815 c2.9198 -2.1508 6.1956 -3.511 9.4596 -4.1821 c3.2719 -0.67878 6.5574 -0.6813 9.7098 -0.08133 c3.1492 0.59361 6.1866 1.777 8.8872 3.5598 c0.66162 0.47162 1.3207 0.94194 1.9417 1.4612 l0.9057 0.81672 c0.30697 0.27392 0.58025 0.53959 0.88722 0.86436 c1.3684 1.4237 2.5086 3.0305 3.2745 4.7681 z M32.395 36.947 c0.23514 -0.94002 -0.086544 -1.9011 -0.70812 -2.4604 c-0.29807 -0.28664 -0.63492 -0.49195 -0.9597 -0.63624 c-0.25166 -0.16652 -0.61584 -0.32608 -0.89736 -0.49892 c-0.31459 -0.15381 -0.6495 -0.27838 -0.96348 -0.42011 c-1.3315 -0.47666 -2.7889 -0.68256 -4.2234 -0.6171 c-0.24404 0.0089064 -0.48557 0.038789 -0.72708 0.065508 l-1.9811 11.456 c3.0666 -0.46207 5.9407 -1.7644 8.1132 -3.6463 c0.34763 -0.28283 0.6711 -0.61458 0.97362 -0.91392 c0.28858 -0.29807 0.54088 -0.6171 0.7722 -0.92916 c0.29174 -0.46013 0.49447 -0.9273 0.60126 -1.3989 z"></path>
  </g>
  <g id="SvgjsG4218" featurekey="nameFeature-0" transform="matrix(2.0998109990673632,0,0,2.0998109990673632,156.6410177573502,3.8031030686282143)" fill="#ffffff">
    <path d="M13.239 12 c5.1164 0 9.2784 4.1624 9.2784 9.2784 s-4.162 9.2784 -9.2784 9.2784 l-7.2468 0 l0 7.247 c0 1.2128 -0.98328 2.196 -2.196 2.196 s-2.196 -0.98328 -2.196 -2.196 l0 -9.4431 c0 -1.2128 0.98328 -2.196 2.196 -2.196 l9.4428 0 c2.6943 0 4.8864 -2.192 4.8864 -4.8864 s-2.1922 -4.8864 -4.8864 -4.8864 l-4.1412 0 l4.5136 4.5136 c0.85756 0.85756 0.85756 2.248 0 3.1056 c-0.85784 0.85784 -2.248 0.85784 -3.1058 0 l-8.2628 -8.2628 c-0.62808 -0.62808 -0.81584 -1.5726 -0.47576 -2.3932 s1.1408 -1.3555 2.0289 -1.3555 l9.4428 0 z M34.913 35.608 c1.2128 0 2.1961 0.98332 2.1961 2.1961 s-0.98328 2.196 -2.196 2.196 c-5.7668 0 -10.459 -4.692 -10.459 -10.459 l0 -15.345 c0 -1.2128 0.98328 -2.196 2.196 -2.196 s2.196 0.98328 2.196 2.196 l0 15.345 c0 3.3452 2.7215 6.0668 6.0668 6.0668 z M55.46000000000001 19.412 c1.2128 0 2.196 0.98328 2.196 2.196 l0 16.196 c0 1.2128 -0.98328 2.196 -2.196 2.196 c-1.1071 0 -2.0201 -0.81968 -2.1716 -1.885 c-1.677 1.1856 -3.721 1.885 -5.9264 1.885 c-5.6764 0 -10.294 -4.6176 -10.294 -10.294 s4.6176 -10.294 10.294 -10.294 c2.2054 0 4.2492 0.69944 5.9264 1.885 c0.15152 -1.0654 1.0645 -1.885 2.1716 -1.885 z M47.362 35.608 c3.2543 0 5.902 -2.6476 5.902 -5.902 s-2.6476 -5.902 -5.902 -5.902 s-5.902 2.6476 -5.902 5.902 s2.6476 5.902 5.902 5.902 z M67.5824 19.412 c4.4004 0 7.98 3.5802 7.98 7.9804 l0 10.412 c0 1.2128 -0.98328 2.196 -2.196 2.196 s-2.196 -0.98328 -2.196 -2.196 l0 -10.412 c0 -1.9784 -1.6094 -3.5881 -3.5881 -3.5881 s-3.5881 1.6094 -3.5881 3.5881 l0 10.412 c0 1.2128 -0.98328 2.196 -2.196 2.196 s-2.196 -0.98328 -2.196 -2.196 l0 -16.196 c0 -1.2128 0.98328 -2.196 2.196 -2.196 c0.78592 0 1.4733 0.4142 1.8615 1.0349 c1.1592 -0.65744 2.4975 -1.0349 3.9227 -1.0349 z M87.83000000000001 19.412 c5.6764 0 10.294 4.6176 10.294 10.294 s-4.6176 10.294 -10.294 10.294 s-10.294 -4.6176 -10.294 -10.294 s4.6176 -10.294 10.294 -10.294 z M87.83000000000001 35.608 c3.2543 0 5.902 -2.6476 5.902 -5.902 s-2.6476 -5.902 -5.902 -5.902 s-5.902 2.6476 -5.902 5.902 s2.6476 5.902 5.902 5.902 z M110.364 19.412 c5.6764 0 10.294 4.6176 10.294 10.294 s-4.6176 10.294 -10.294 10.294 s-10.294 -4.6176 -10.294 -10.294 s4.6176 -10.294 10.294 -10.294 z M110.364 35.608 c3.2543 0 5.902 -2.6476 5.902 -5.902 s-2.6476 -5.902 -5.902 -5.902 s-5.902 2.6476 -5.902 5.902 s2.6476 5.902 5.902 5.902 z">
    </path>
  </g>
  <!-- <g id="SvgjsG4219" featurekey="sloganFeature-0" transform="matrix(0.5163698606283583,0,0,0.5163698606283583,159.556231847357,105.06017719839724)" fill="#ffffff">
    <path d="M7.9297 20.19531 c-4.0723 0 -7.0703 -2.8125 -7.0703 -7.2168 c0 -4.4629 3.0664 -7.2852 7.2168 -7.2852 c2.7246 0 4.9805 1.2012 6.2109 3.3203 l-2.5684 1.3672 c-0.74219 -1.4453 -2.0703 -2.1387 -3.6426 -2.1387 c-2.4414 0 -4.2773 1.6797 -4.2773 4.668 c0 2.8809 1.7188 4.7363 4.3848 4.7363 c1.8066 0 3.4668 -0.89844 3.8672 -2.959 l-3.8574 0 l0 -2.3535 l6.6309 0 l0 7.666 l-2.3047 0 l0 -1.9531 c-0.9082 1.3379 -2.4316 2.1484 -4.5898 2.1484 z M31.335683593749998 8.467 l-5.2344 0 l0 3.2031 l4.6387 0 l0 2.5488 l-4.6387 0 l0 3.1934 l5.2344 0 l0 2.5879 l-8.1836 0 l0 -14.111 l8.1836 0 l0 2.5781 z M47.8273828125 5.888999999999999 l0 2.5781 l-3.3496 0 l0 11.533 l-2.9004 0 l0 -11.533 l-3.3691 0 l0 -2.5781 l9.6191 0 z M72.070340625 20.19531 c-4.1504 0 -7.2168 -2.832 -7.2168 -7.2559 c0 -4.4336 3.0664 -7.2461 7.2168 -7.2461 c4.1406 0 7.207 2.8125 7.207 7.2461 c0 4.4238 -3.0664 7.2559 -7.207 7.2559 z M72.070340625 17.5098 c2.4316 0 4.2969 -1.709 4.2969 -4.5703 c0 -2.8516 -1.8652 -4.5508 -4.2969 -4.5508 s-4.2969 1.6992 -4.2969 4.5508 c0 2.8613 1.8652 4.5703 4.2969 4.5703 z M94.71431171875 20 l-3.6719 -6.2109 l-0.84961 0 l0 6.2109 l-2.9297 0 l0 -14.111 l5.1172 0 c3.1934 0 4.541 1.8848 4.541 4.2188 c0 1.8945 -1.0742 3.125 -2.9883 3.5352 l4.248 6.3574 l-3.4668 0 z M90.19291171875 8.32 l0 3.3691 l1.7285 0 c1.5625 0 2.1973 -0.66406 2.1973 -1.6797 c0 -1.0059 -0.63477 -1.6895 -2.1973 -1.6895 l-1.7285 0 z M111.7236453125 20.19531 c-4.0723 0 -7.0703 -2.8125 -7.0703 -7.2168 c0 -4.4629 3.0664 -7.2852 7.2168 -7.2852 c2.7246 0 4.9805 1.2012 6.2109 3.3203 l-2.5684 1.3672 c-0.74219 -1.4453 -2.0703 -2.1387 -3.6426 -2.1387 c-2.4414 0 -4.2773 1.6797 -4.2773 4.668 c0 2.8809 1.7188 4.7363 4.3848 4.7363 c1.8066 0 3.4668 -0.89844 3.8672 -2.959 l-3.8574 0 l0 -2.3535 l6.6309 0 l0 7.666 l-2.3047 0 l0 -1.9531 c-0.9082 1.3379 -2.4316 2.1484 -4.5898 2.1484 z M136.38962890625 20 l-1.0254 -2.9102 l-5.9277 0 l-1.0254 2.9102 l-2.998 0 l5.1953 -14.111 l3.584 0 l5.1953 14.111 l-2.998 0 z M130.29542890625 14.6387 l4.209 0 l-2.0996 -5.9863 z M156.435703125 5.888999999999999 l2.9199 0 l0 14.111 l-3.3887 0 l-6.25 -10.088 l0 10.088 l-2.9199 0 l0 -14.111 l3.3496 0 l6.2891 10.029 l0 -10.029 z M168.29836796875 20 l0 -14.111 l2.9297 0 l0 14.111 l-2.9297 0 z M182.7294609375 17.4121 l6.7773 0 l0 2.5879 l-10.283 0 l0 -2.3145 l6.6895 -9.2188 l-6.6797 0 l0 -2.5781 l10.146 0 l0 2.3145 z M205.66673828125 8.467 l-5.2344 0 l0 3.2031 l4.6387 0 l0 2.5488 l-4.6387 0 l0 3.1934 l5.2344 0 l0 2.5879 l-8.1836 0 l0 -14.111 l8.1836 0 l0 2.5781 z M213.9746375 20 l0 -14.111 l5.1074 0 c4.502 0 6.7285 2.832 6.7285 7.0508 c0 4.2285 -2.2266 7.0605 -6.7285 7.0605 l-5.1074 0 z M216.9043375 17.4121 l2.0313 0 c2.5977 0 3.7891 -1.6211 3.7891 -4.4727 s-1.1914 -4.4727 -3.7891 -4.4727 l-2.0313 0 l0 8.9453 z M244.3310828125 20 l0 -14.111 l2.9297 0 l0 14.111 l-2.9297 0 z M265.83267578125 5.888999999999999 l2.9199 0 l0 14.111 l-3.3887 0 l-6.25 -10.088 l0 10.088 l-2.9199 0 l0 -14.111 l3.3496 0 l6.2891 10.029 l0 -10.029 z M297.62498046875 20 l-1.0254 -2.9102 l-5.9277 0 l-1.0254 2.9102 l-2.998 0 l5.1953 -14.111 l3.584 0 l5.1953 14.111 l-2.998 0 z M291.53078046875 14.6387 l4.209 0 l-2.0996 -5.9863 z M323.20559453125 20.19531 c-3.0273 0 -5.3906 -1.4551 -5.8203 -4.1016 l3.0273 -0.69336 c0.19531 1.582 1.3574 2.4023 2.9102 2.4023 c1.1914 0 2.1387 -0.52734 2.1289 -1.7188 c-0.0097656 -1.3281 -1.5723 -1.748 -3.291 -2.2754 c-2.0703 -0.64453 -4.2871 -1.4063 -4.2871 -4.0039 c0 -2.627 2.1484 -4.1113 4.9805 -4.1113 c2.4805 0 4.9805 1.0059 5.5469 3.7109 l-2.832 0.70313 c-0.26367 -1.4063 -1.2109 -2.0215 -2.5391 -2.0215 c-1.1816 0 -2.1875 0.48828 -2.1875 1.6504 c0 1.084 1.3867 1.4453 2.9883 1.9238 c2.1289 0.64453 4.6484 1.4648 4.6484 4.2773 c0 2.998 -2.5098 4.2578 -5.2734 4.2578 z M346.1134375 5.888999999999999 l2.9199 0 l0 14.111 l-3.3887 0 l-6.25 -10.088 l0 10.088 l-2.9199 0 l0 -14.111 l3.3496 0 l6.2891 10.029 l0 -10.029 z M367.41990234375 20 l-1.0254 -2.9102 l-5.9277 0 l-1.0254 2.9102 l-2.998 0 l5.1953 -14.111 l3.584 0 l5.1953 14.111 l-2.998 0 z M361.32570234375 14.6387 l4.209 0 l-2.0996 -5.9863 z M383.6962765625 5.888999999999999 c2.7637 0 4.4824 2.0508 4.4824 4.5605 c0 2.5684 -1.7188 4.4922 -4.4824 4.4922 l-2.9395 0 l0 5.0586 l-2.9297 0 l0 -14.111 l5.8691 0 z M383.2079765625 12.4902 c1.4648 0 2.1484 -0.81055 2.1484 -2.0801 c0 -1.2207 -0.68359 -2.0703 -2.1484 -2.0703 l-2.4512 0 l0 4.1504 l2.4512 0 z">
    </path>
  </g> -->
</svg>