<svg xmlns="http://www.w3.org/2000/svg" xmlns:xlink="http://www.w3.org/1999/xlink" aria-hidden="true" role="img" class="iconify iconify--logos" width="31.88" height="32" preserveAspectRatio="xMidYMid meet" viewBox="0 0 140 144">
  <g id="SvgjsG4216" featurekey="symbolGroupContainer" transform="matrix(1,0,0,1,0,0)" fill="#ffffff">
    <rect xmlns="http://www.w3.org/2000/svg" width="140" height="144" rx="10" ry="10">
    </rect>
  </g>
  <g id="SvgjsG4217" featurekey="monogramFeature-0" transform="matrix(2.4877658715313546,0,0,2.4877658715313546,12.536886255583248,-24.66314319211535)" fill="#A855F7">
    <path d="M42.114 29.863 c0.76776 1.7332 1.1562 3.6032 1.0711 5.4502 c-0.070548 1.8464 -0.61272 3.6425 -1.4733 5.2441 c-0.86436 1.6029 -2.0459 3.0209 -3.3698 4.2087 c-0.58283 0.5059 -1.1777 0.97494 -1.7968 1.3913 c-0.61458 0.40043 -1.2038 0.78054 -1.8336 1.1123 c-4.3365 2.3701 -9.2064 3.2707 -13.847 2.7539 l-1.5476 8.949 c-0.23514 1.2286 -5.3496 1.1986 -5.7119 -0.048985 l-4.2336 -27.3 c-2.5931 0.7659 -4.6346 1.1383 -4.7102 0.6057 l-0.081972 -0.32479 l-1.5794 -6.267 l4.048 -2.9815 c2.9198 -2.1508 6.1956 -3.511 9.4596 -4.1821 c3.2719 -0.67878 6.5574 -0.6813 9.7098 -0.08133 c3.1492 0.59361 6.1866 1.777 8.8872 3.5598 c0.66162 0.47162 1.3207 0.94194 1.9417 1.4612 l0.9057 0.81672 c0.30697 0.27392 0.58025 0.53959 0.88722 0.86436 c1.3684 1.4237 2.5086 3.0305 3.2745 4.7681 z M32.395 36.947 c0.23514 -0.94002 -0.086544 -1.9011 -0.70812 -2.4604 c-0.29807 -0.28664 -0.63492 -0.49195 -0.9597 -0.63624 c-0.25166 -0.16652 -0.61584 -0.32608 -0.89736 -0.49892 c-0.31459 -0.15381 -0.6495 -0.27838 -0.96348 -0.42011 c-1.3315 -0.47666 -2.7889 -0.68256 -4.2234 -0.6171 c-0.24404 0.0089064 -0.48557 0.038789 -0.72708 0.065508 l-1.9811 11.456 c3.0666 -0.46207 5.9407 -1.7644 8.1132 -3.6463 c0.34763 -0.28283 0.6711 -0.61458 0.97362 -0.91392 c0.28858 -0.29807 0.54088 -0.6171 0.7722 -0.92916 c0.29174 -0.46013 0.49447 -0.9273 0.60126 -1.3989 z"></path>
  </g>
</svg>